<?xml version="1.0" standalone="no"?>
<!DOCTYPE svg PUBLIC "-//W3C//DTD SVG 20010904//EN"
 "http://www.w3.org/TR/2001/REC-SVG-20010904/DTD/svg10.dtd">
<svg version="1.0" xmlns="http://www.w3.org/2000/svg"
 width="180.000000pt" height="180.000000pt" viewBox="0 0 180.000000 180.000000"
 preserveAspectRatio="xMidYMid meet">
<metadata>
Created by potrace 1.16, written by Peter Selinger 2001-2019
</metadata>
<g transform="translate(0.000000,180.000000) scale(0.100000,-0.100000)"
fill="#000000" stroke="none">
<path d="M297 1766 c-23 -22 -40 -55 -55 -102 -26 -83 -37 -170 -24 -178 6 -4
6 -22 0 -50 -9 -44 8 -142 34 -189 5 -11 7 -34 4 -52 -5 -26 -12 -34 -36 -38
-41 -9 -60 -51 -60 -131 0 -147 110 -298 205 -283 31 5 35 2 69 -50 l37 -56
-33 -28 c-32 -26 -33 -30 -31 -93 l2 -66 -37 -16 c-49 -20 -90 -60 -113 -109
-15 -33 -19 -65 -19 -182 l0 -143 650 0 650 0 0 123 c0 83 -5 141 -16 176 -18
61 -71 125 -119 142 -33 12 -33 12 -31 76 1 61 -1 66 -31 93 l-32 29 32 54
c30 51 34 54 64 50 61 -10 146 67 184 167 37 97 20 229 -32 245 -18 6 -20 12
-15 39 18 90 25 222 15 284 -7 47 -7 68 0 70 18 6 12 35 -22 107 -25 52 -47
80 -82 108 l-48 37 -538 0 -538 0 -34 -34z m1013 -409 c17 -49 41 -107 53
-128 19 -32 22 -47 17 -99 -6 -66 -5 -70 21 -70 18 0 21 15 -30 -204 -56 -242
-221 -366 -486 -366 -159 0 -269 41 -362 137 -66 67 -125 187 -148 303 -10 47
-20 95 -23 108 -4 18 0 22 23 22 l27 0 -7 58 c-6 50 -3 63 19 102 14 25 29 72
35 105 20 115 22 119 76 128 33 5 51 5 53 -2 7 -20 265 -10 377 14 11 3 7 -2
-10 -10 -16 -8 -54 -14 -83 -15 -38 0 -52 -4 -49 -12 3 -9 32 -13 98 -13 118
0 154 16 264 119 l80 75 13 -81 c6 -44 26 -121 42 -171z m-1031 -253 c28 -24
41 -54 56 -129 3 -19 -1 -13 -11 15 -32 86 -77 127 -109 100 -17 -14 -20 -86
-4 -96 7 -4 10 4 9 22 -4 50 0 64 14 64 7 0 19 -7 26 -15 11 -13 10 -18 -6
-31 -18 -15 -18 -15 8 -10 36 8 48 -24 19 -53 -12 -12 -21 -35 -22 -53 0 -18
-3 -27 -6 -20 -6 14 -23 16 -23 2 0 -5 14 -25 32 -45 26 -31 37 -36 66 -33 40
3 66 -22 45 -43 -29 -29 -114 34 -155 114 -29 57 -37 177 -14 212 21 32 37 32
75 -1z m1287 1 c23 -35 15 -155 -14 -212 -41 -80 -126 -143 -155 -114 -21 21
5 46 45 43 31 -3 40 2 72 40 22 25 32 44 25 47 -6 2 -15 -3 -20 -10 -6 -10 -9
-4 -9 19 0 19 -8 40 -21 53 -28 28 -17 61 17 53 14 -4 24 -2 24 5 0 6 -7 11
-16 11 -19 0 -14 20 9 34 23 14 31 2 29 -45 -1 -24 2 -38 8 -34 15 9 12 81 -5
95 -33 27 -79 -16 -108 -102 -13 -40 -13 -49 -1 -59 18 -15 18 -34 -2 -64 -37
-56 -43 -18 -18 99 13 58 25 83 56 120 45 53 61 56 84 21z m-764 -647 c74 -11
210 -2 261 17 14 6 17 1 17 -27 0 -40 -14 -49 -102 -67 -35 -8 -64 -21 -78
-36 l-23 -24 -32 28 c-19 16 -56 34 -86 41 -67 16 -79 25 -79 62 0 27 3 30 23
24 12 -4 57 -12 99 -18z"/>
<path d="M505 1274 c-16 -8 -37 -22 -45 -30 -13 -13 -9 -14 41 -8 37 4 64 2
79 -6 30 -16 190 -27 190 -13 0 12 -26 36 -44 40 -144 36 -179 39 -221 17z"/>
<path d="M499 1164 c-7 -9 -14 -21 -16 -28 -1 -6 -5 -22 -9 -36 -7 -24 -7 -24
13 -7 29 26 53 22 53 -8 0 -33 42 -75 75 -75 31 0 75 41 75 71 0 18 4 20 28
15 l27 -6 -23 20 c-34 29 -97 43 -172 38 -60 -4 -62 -3 -35 9 32 14 145 9 178
-8 11 -7 17 -6 17 1 0 32 -186 44 -211 14z"/>
<path d="M1070 1160 c-42 -23 -31 -25 34 -5 61 19 126 19 151 2 16 -12 10 -13
-40 -9 -72 6 -157 -13 -181 -39 -18 -20 -18 -20 9 -14 24 6 27 4 27 -18 0 -30
42 -67 75 -67 34 0 78 46 72 76 -3 20 0 24 19 24 13 0 28 -8 33 -17 8 -14 10
-9 8 22 -4 61 -9 65 -95 65 -56 -1 -86 -6 -112 -20z"/>
</g>
</svg>
